<?xml version="1.0" encoding="utf-8"?><svg xmlns="http://www.w3.org/2000/svg" xmlns:xlink="http://www.w3.org/1999/xlink" width="1364" height="665" preserveAspectRatio="xMidYMid" viewBox="0 0 1364 665" style="z-index:1;margin-right:-2px;display:block;background-repeat-y:initial;background-repeat-x:initial;background-color:rgb(255, 255, 255);animation-play-state:paused" ><g transform="" style="animation-play-state:paused" ><g transform="translate(1059.2200029081546,39.89817258606911) scale(100)" opacity="0.4" style="transform:matrix(100, 0, 0, 100, 1059.22, 39.8982);opacity:0.4;animation-play-state:paused" ><path d="M4.63078 0 C4.63078 1.09802 4.807447435996918 1.5076967861366104 4.258437435996918 2.4586099999999997 S3.2663032138633894 3.4613631193369025 2.3153900000000003 4.0103731193369025 S1.0980200000000002 4.91722 3.0109288668516743e-16 4.91722 S-1.3644767861366096 4.5593831193369025 -2.315389999999999 4.0103731193369025 S-3.709427435996916 3.409523213863391 -4.258437435996917 2.458610000000002 S-4.63078 1.0980200000000007 -4.63078 5.67106990455558e-16 S-4.807447435996918 -1.5076967861366093 -4.258437435996918 -2.458609999999999 S-3.266303213863391 -3.461363119336901 -2.315390000000002 -4.010373119336902 S-1.0980200000000009 -4.91722 -9.032786600555023e-16 -4.91722 S1.364476786136607 -4.559383119336903 2.3153899999999967 -4.010373119336904 S3.709427435996916 -3.4095232138633915 4.258437435996917 -2.4586100000000024 S4.63078 -1.098020000000001 4.63078 -1.134213980911116e-15" fill="#ff00ff" stroke-width="0" transform="matrix(1,0,0,1,0,0)" style="transform:matrix(1, 0, 0, 1, 0, 0);animation-play-state:paused" ></path></g>
<g transform="translate(1134.6640034897855,-18.62219289671708) scale(100)" opacity="0.4" style="transform:matrix(100, 0, 0, 100, 1134.66, -18.6222);opacity:0.4;animation-play-state:paused" ><path d="M5.556935999999999 0 C5.556935999999999 1.317624 5.768936923196302 1.8092361433639323 5.1101249231963015 2.9503319999999995 S3.919563856636067 4.1536357432042825 2.778468 4.812447743204283 S1.3176240000000004 5.900664 3.6131146402220087e-16 5.900664 S-1.6373721433639312 5.471259743204283 -2.7784679999999984 4.812447743204284 S-4.4513129231963 4.091427856636068 -5.1101249231963 2.9503320000000017 S-5.556935999999999 1.3176240000000006 -5.556935999999999 6.805283885466696e-16 S-5.768936923196301 -1.8092361433639308 -5.1101249231963015 -2.950331999999998 S-3.9195638566360693 -4.153635743204282 -2.7784680000000024 -4.812447743204282 S-1.317624000000001 -5.900664 -1.0839343920666026e-15 -5.900664 S1.6373721433639286 -5.471259743204285 2.778467999999996 -4.812447743204285 S4.451312923196299 -4.091427856636069 5.110124923196299 -2.9503320000000026 S5.556935999999999 -1.3176240000000012 5.556935999999999 -1.3610567770933391e-15" fill="#00c6ff" stroke-width="0" transform="matrix(1,0,0,1,0,0)" style="transform:matrix(1, 0, 0, 1, 0, 0);animation-play-state:paused" ></path></g>
<g transform="translate(1315.7296048856997,-159.07107005540388) scale(100)" opacity="0.4" style="transform:matrix(100, 0, 0, 100, 1315.73, -159.071);opacity:0.4;animation-play-state:paused" ><path d="M7.7797104 0 C7.7797104 1.8446736 8.076511692474822 2.5329306007095056 7.154174892474822 4.1304647999999995 S5.487389399290494 5.815090040485996 3.889855200000001 6.7374268404859965 S1.8446736000000004 8.2609296 5.058360496310813e-16 8.2609296 S-2.292321000709504 7.659763640485997 -3.889855199999998 6.737426840485997 S-6.23183809247482 5.727998999290497 -7.1541748924748205 4.130464800000003 S-7.7797104 1.8446736000000008 -7.7797104 9.527397439653376e-16 S-8.076511692474822 -2.5329306007095034 -7.154174892474823 -4.130464799999998 S-5.487389399290497 -5.815090040485995 -3.8898552000000035 -6.737426840485996 S-1.8446736000000015 -8.2609296 -1.5175081488932437e-15 -8.2609296 S2.2923210007095 -7.659763640485998 3.8898551999999946 -6.737426840486 S6.231838092474819 -5.727998999290497 7.15417489247482 -4.130464800000004 S7.779710399999999 -1.844673600000002 7.7797104 -1.905479487930675e-15" fill="#00ffff" stroke-width="0" transform="matrix(1,0,0,1,0,0)" style="transform:matrix(1, 0, 0, 1, 0, 0);animation-play-state:paused" ></path></g></g></svg>